# xmcd
#
# Track frame offsets:
#	150
#	10087
#	17200
#	23125
#	34340
#	48100
#	59570
#	69727
#	77690
#	89979
#	97860
#	113052
#	120755
#	135035
#
# Disc length: 1917 seconds
#
# Revision: 0
# Processed by: cddbd v1.4PL0 Copyright (c) Steve Scherf et al.
# Submitted via: EasyCDDAExtractor 4.6.9.1
#
DISCID=a8077b0e
DTITLE=Jim Reeves - Have I Told You Lately That I Love You [CD1)
DYEAR=1900
DGENRE=Country
TTITLE0=Home
TTITLE1=I'M Beginning To Forget You
TTITLE2=Have I Told You Lately That I Love You
TTITLE3=Just Call Me Lonesome
TTITLE4=How's The World Treating You
TTITLE5=If Heartaches Are The Fashion
TTITLE6=Dear Hearts And Gentle People
TTITLE7=Roly Poly
TTITLE8=Your Old Love Letters
TTITLE9='Till The End Of The World
TTITLE10=Making Believe
TTITLE11=The Oklahoma Hills
TTITLE12=The Highway To Nowhere
TTITLE13=If You Were Mine
EXTD=
EXTT0=
EXTT1=
EXTT2=
EXTT3=
EXTT4=
EXTT5=
EXTT6=
EXTT7=
EXTT8=
EXTT9=
EXTT10=
EXTT11=
EXTT12=
EXTT13=
PLAYORDER=
